<svg width="32" height="33" viewBox="0 0 32 33" fill="none" xmlns="http://www.w3.org/2000/svg">
<g clip-path="url(#clip0_3_1273)">
<circle cx="16" cy="17" r="16" fill="#E7B460" fill-opacity="0.12"/>
<path d="M17.9286 18.4688H14.0714C10.1661 18.4688 7 21.7008 7 25.6875C7 26.4122 7.57576 27 8.28571 27H23.7143C24.4242 27 25 26.4122 25 25.6875C25 21.7008 21.8339 18.4688 17.9286 18.4688ZM8.96835 25.0312C9.28576 22.4432 11.4518 20.4375 14.0714 20.4375H17.9286C20.5466 20.4375 22.7138 22.4452 23.0312 25.0312H8.96835ZM16 16.5C18.8402 16.5 21.1429 14.1494 21.1429 11.25C21.1429 8.35061 18.8402 6 16 6C13.1598 6 10.8571 8.35061 10.8571 11.25C10.8571 14.1498 13.1594 16.5 16 16.5ZM16 7.96875C17.7723 7.96875 19.2143 9.4408 19.2143 11.25C19.2143 13.0592 17.7723 14.5312 16 14.5312C14.2277 14.5312 12.7857 13.0588 12.7857 11.25C12.7857 9.4408 14.2281 7.96875 16 7.96875Z" fill="#E7B460"/>
</g>
<defs>
<clipPath id="clip0_3_1273">
<rect width="32" height="32" fill="white" transform="translate(0 1)"/>
</clipPath>
</defs>
</svg>
