<svg width="14" height="15" viewBox="0 0 14 15" fill="none" xmlns="http://www.w3.org/2000/svg">
<path d="M10.4457 10.8125C10.6692 11.0625 10.6692 11.4375 10.4457 11.6875C10.334 11.8125 10.2223 11.875 10.0547 11.875C9.88713 11.875 9.77542 11.8125 9.6637 11.6875L6.70314 8.375L3.74259 11.6875C3.63087 11.8125 3.51915 11.875 3.35157 11.875C3.18399 11.875 3.07227 11.8125 2.96055 11.6875C2.73712 11.4375 2.73712 11.0625 2.96055 10.8125L5.92111 7.5L2.96055 4.1875C2.73712 3.9375 2.73712 3.5625 2.96055 3.3125C3.18399 3.0625 3.51915 3.0625 3.74259 3.3125L6.70314 6.625L9.6637 3.3125C9.88713 3.0625 10.2223 3.0625 10.4457 3.3125C10.6692 3.5625 10.6692 3.9375 10.4457 4.1875L7.48518 7.5L10.4457 10.8125Z" fill="black"/>
<mask id="mask0_838_4778" style="mask-type:alpha" maskUnits="userSpaceOnUse" x="2" y="3" width="9" height="9">
<path d="M10.4457 10.8125C10.6692 11.0625 10.6692 11.4375 10.4457 11.6875C10.334 11.8125 10.2223 11.875 10.0547 11.875C9.88713 11.875 9.77542 11.8125 9.6637 11.6875L6.70314 8.375L3.74259 11.6875C3.63087 11.8125 3.51915 11.875 3.35157 11.875C3.18399 11.875 3.07227 11.8125 2.96055 11.6875C2.73712 11.4375 2.73712 11.0625 2.96055 10.8125L5.92111 7.5L2.96055 4.1875C2.73712 3.9375 2.73712 3.5625 2.96055 3.3125C3.18399 3.0625 3.51915 3.0625 3.74259 3.3125L6.70314 6.625L9.6637 3.3125C9.88713 3.0625 10.2223 3.0625 10.4457 3.3125C10.6692 3.5625 10.6692 3.9375 10.4457 4.1875L7.48518 7.5L10.4457 10.8125Z" fill="white"/>
</mask>
<g mask="url(#mask0_838_4778)">
<rect width="13.4063" height="15" fill="#5E5873"/>
</g>
</svg>
