<svg width="25" height="25" viewBox="0 0 25 25" fill="none" xmlns="http://www.w3.org/2000/svg">
<path d="M9.17998 17.3616C9.17998 17.3616 8.04245 15.6495 7.13617 15.9735C5.75696 16.4696 6.18406 16.3016 4.71526 16.9356C1.03598 18.5217 3.71315 20.5618 0.177622 23.228C-0.168222 23.488 0.0276173 24.0241 0.465131 24.0101C2.42769 23.9481 5.65279 23.428 6.96117 21.6659C8.31954 19.8318 7.56535 18.6117 9.17998 17.3616Z" fill="url(#paint0_radial_9_13)"/>
<path d="M4.92151 21.8359C3.5298 22.334 3.3673 21.8979 3.40063 20.1578C3.41313 19.4678 2.9777 19.3898 2.43185 19.5538C2.17559 20.5978 2.08392 21.7919 0.179697 23.228C-0.166147 23.488 0.0296924 24.0021 0.467206 24.0101C2.98812 24.0601 5.34861 23.48 6.75699 21.9099C6.54865 21.6159 5.80696 21.5179 4.92151 21.8359Z" fill="url(#paint1_radial_9_13)"/>
<g opacity="0.2">
<path d="M7.37575 16.5316C7.57992 16.5316 7.98827 16.8576 8.34869 17.2816C7.67367 17.9697 7.49242 18.6677 7.31741 19.3458C7.16116 19.9518 6.99865 20.5778 6.4528 21.3159C6.40697 21.3779 6.34863 21.4439 6.28405 21.5159L6.25696 21.5459C6.22363 21.5819 6.19029 21.6159 6.15488 21.6499L6.15071 21.6539L6.14654 21.6579C4.76733 23.062 2.57768 23.392 0.925546 23.412C2.49434 22.0979 2.76519 20.8779 2.98186 19.8978C3.21103 18.8617 3.36312 18.1757 4.97151 17.4836C5.19651 17.3856 5.37777 17.3076 5.52777 17.2436C6.22363 16.9416 6.22363 16.9416 6.95073 16.6816L7.35491 16.5376C7.35908 16.5336 7.36533 16.5316 7.37575 16.5316ZM7.37575 15.9315C7.29449 15.9315 7.21324 15.9435 7.13616 15.9735C5.75695 16.4696 6.18404 16.3015 4.71316 16.9356C1.15055 18.4717 3.54854 20.4338 0.494282 22.976C0.396363 23.056 0.294276 23.138 0.185939 23.22C0.183856 23.222 0.179689 23.224 0.177606 23.226L0.175522 23.228C0.0484351 23.326 -0.00573327 23.458 0.00260032 23.586C0.0109339 23.8021 0.183856 24.0081 0.450531 24.0081C0.456781 24.0081 0.460948 24.0081 0.467198 24.0081C0.565118 24.0101 0.665121 24.0101 0.763041 24.0101C3.08395 24.0101 5.23818 23.454 6.60281 22.0659C6.65281 22.0159 6.70281 21.9659 6.75073 21.9139C6.75281 21.9119 6.75489 21.9099 6.75698 21.9059C6.8299 21.8259 6.90073 21.7459 6.96323 21.6619C8.32369 19.8278 7.5695 18.6077 9.18414 17.3576C9.17997 17.3616 8.23202 15.9315 7.37575 15.9315Z" fill="#424242"/>
</g>
<path d="M24.7471 2.45059C25.1596 1.82255 25.0596 1.00449 24.5138 0.480456C23.9679 -0.0435798 23.1137 -0.139586 22.4616 0.256441C20.7428 1.29851 17.2719 3.93469 11.2446 10.1691L14.6302 13.4193C21.122 7.63095 23.6638 4.10071 24.7471 2.45059Z" fill="url(#paint2_radial_9_13)"/>
<path d="M11.2425 10.1691C9.64872 11.8172 8.03826 13.8514 6.12153 16.0495C5.98194 16.2075 5.99236 16.4436 6.14445 16.5896L7.96117 18.3337C8.11326 18.4797 8.3591 18.4897 8.52369 18.3557C10.8133 16.5136 12.9092 14.9475 14.626 13.4174L11.2425 10.1691Z" fill="url(#paint3_radial_9_13)"/>
<defs>
<radialGradient id="paint0_radial_9_13" cx="0" cy="0" r="1" gradientUnits="userSpaceOnUse" gradientTransform="translate(3.97634 17.8779) scale(4.03419 3.87258)">
<stop stop-color="#F57C00"/>
<stop offset="0.4277" stop-color="#F47A00"/>
<stop offset="0.6585" stop-color="#F17200"/>
<stop offset="0.8418" stop-color="#ED6400"/>
<stop offset="1" stop-color="#E65100"/>
</radialGradient>
<radialGradient id="paint1_radial_9_13" cx="0" cy="0" r="1" gradientUnits="userSpaceOnUse" gradientTransform="translate(2.80699 17.0693) scale(3.27071 3.13968)">
<stop stop-color="#D32F2F"/>
<stop offset="0.3881" stop-color="#CF2D2D"/>
<stop offset="0.7409" stop-color="#C42525"/>
<stop offset="1" stop-color="#B71C1C"/>
</radialGradient>
<radialGradient id="paint2_radial_9_13" cx="0" cy="0" r="1" gradientUnits="userSpaceOnUse" gradientTransform="translate(18.0219 -0.138208) scale(14.5772 13.9932)">
<stop stop-color="#2196F3"/>
<stop offset="0.2752" stop-color="#1F8EEB"/>
<stop offset="0.7013" stop-color="#1A79D5"/>
<stop offset="0.7539" stop-color="#1976D2"/>
<stop offset="1" stop-color="#1976D2"/>
</radialGradient>
<radialGradient id="paint3_radial_9_13" cx="0" cy="0" r="1" gradientUnits="userSpaceOnUse" gradientTransform="translate(10.6779 11.0614) scale(8.30636 7.97361)">
<stop stop-color="#BBDEFB"/>
<stop offset="1" stop-color="#64B5F6"/>
</radialGradient>
</defs>
</svg>
