<svg width="38" height="39" viewBox="0 0 38 39" fill="none" xmlns="http://www.w3.org/2000/svg">
<path d="M0 0.0488281H33C35.7614 0.0488281 38 2.2874 38 5.04883V33.1229C38 35.8843 35.7614 38.1229 33 38.1229H0V0.0488281Z" stroke="#D8D6DE"/>
<path fill-rule="evenodd" clip-rule="evenodd" d="M23.75 17.75H23V15.5C23 13.025 20.975 11 18.5 11C16.025 11 14 13.025 14 15.5V17.75H13.25C11.975 17.75 11 18.725 11 20V25.25C11 26.525 11.975 27.5 13.25 27.5H23.75C25.025 27.5 26 26.525 26 25.25V20C26 18.725 25.025 17.75 23.75 17.75ZM15.5 15.5C15.5 13.85 16.85 12.5 18.5 12.5C20.15 12.5 21.5 13.85 21.5 15.5V17.75H15.5V15.5ZM23.75 26C24.2 26 24.5 25.7 24.5 25.25V20C24.5 19.55 24.2 19.25 23.75 19.25H13.25C12.8 19.25 12.5 19.55 12.5 20V25.25C12.5 25.7 12.8 26 13.25 26H23.75Z" fill="#D8D6DE"/>
</svg>
