<svg width="40" height="40" viewBox="0 0 40 40" fill="none" xmlns="http://www.w3.org/2000/svg">
<path d="M1 1H34C36.7614 1 39 3.23857 39 6V34.0741C39 36.8355 36.7614 39.0741 34 39.0741H1V1Z" stroke="#D8D6DE"/>
<path fill-rule="evenodd" clip-rule="evenodd" d="M16.5 18.75H24.75C26.025 18.75 27 19.725 27 21V26.25C27 27.525 26.025 28.5 24.75 28.5H14.25C12.975 28.5 12 27.525 12 26.25V21C12 19.725 12.975 18.75 14.25 18.75H15V16.5C15 15.3 15.45 14.175 16.35 13.35C17.175 12.45 18.3 12 19.5 12C21.6 12 23.475 13.5 23.925 15.6C24 16.05 23.7 16.425 23.325 16.5C22.95 16.575 22.5 16.275 22.425 15.9C22.125 14.475 20.925 13.5 19.5 13.5C18.675 13.5 17.925 13.8 17.4 14.4C16.8 14.925 16.5 15.675 16.5 16.5V18.75ZM24.75 27C25.2 27 25.5 26.7 25.5 26.25V21C25.5 20.55 25.2 20.25 24.75 20.25H14.25C13.8 20.25 13.5 20.55 13.5 21V26.25C13.5 26.7 13.8 27 14.25 27H24.75Z" fill="#D8D6DE"/>
</svg>
