<svg width="24" height="22" viewBox="0 0 24 22" fill="none" xmlns="http://www.w3.org/2000/svg">
<path d="M9.60938 0.631218C10.1484 0.87028 10.5 1.40934 10.5 1.99997V4.99997H15.75C20.3062 4.99997 24 8.69372 24 13.25C24 18.5609 20.1797 20.9328 19.3031 21.4109C19.1859 21.4765 19.0547 21.5 18.9234 21.5C18.4125 21.5 18 21.0828 18 20.5765C18 20.225 18.2016 19.9015 18.4594 19.6625C18.9 19.25 19.5 18.425 19.5 17.0047C19.5 14.5203 17.4844 12.5047 15 12.5047H10.5V15.5047C10.5 16.0953 10.1531 16.6343 9.60938 16.8734C9.06563 17.1125 8.4375 17.014 7.99688 16.6203L0.496875 9.87028C0.182813 9.57965 0 9.17653 0 8.74997C0 8.32341 0.182813 7.92028 0.496875 7.63434L7.99688 0.884343C8.4375 0.485905 9.07031 0.387468 9.60938 0.631218Z" fill="#E7B460"/>
</svg>
