<svg width="24" height="24" viewBox="0 0 24 24" fill="none" xmlns="http://www.w3.org/2000/svg">
<path d="M20.5714 0C22.4625 0 24 1.53482 24 3.42857V20.5714C24 22.4625 22.4625 24 20.5714 24H3.42857C1.53482 24 0 22.4625 0 20.5714V3.42857C0 1.53482 1.53482 0 3.42857 0H20.5714ZM20.5714 2.57143H3.42857C2.955 2.57143 2.57143 2.955 2.57143 3.42857V20.5714C2.57143 21.0429 2.955 21.4286 3.42857 21.4286H20.5714C21.0429 21.4286 21.4286 21.0429 21.4286 20.5714V3.42857C21.4286 2.955 21.0429 2.57143 20.5714 2.57143Z" fill="#E7B460"/>
</svg>
