<svg width="24" height="22" viewBox="0 0 24 22" fill="none" xmlns="http://www.w3.org/2000/svg">
<path d="M1.62887 0.40457C2.15195 -0.134857 2.99725 -0.134857 3.52033 0.40457L6.92664 3.913L9.14869 1.62152C10.3246 0.408886 12.2328 0.408886 13.4087 1.62152L19.7442 8.15938C20.9201 9.37201 20.9201 11.3398 19.7442 12.5525L11.7766 20.7733C10.2074 22.3916 7.66314 22.3916 6.09389 20.7733L1.17693 15.7027C-0.392311 14.0844 -0.392311 11.4607 1.17693 9.84239L5.03099 5.86789L1.62887 2.35514C1.10579 1.81571 1.10579 0.939682 1.62887 0.400255V0.40457ZM8.99385 9.95459L6.92664 7.82277L3.07258 11.7973C2.89682 11.9785 2.77965 12.1986 2.72107 12.4273H16.0785L17.8486 10.6019C17.9783 10.4681 17.9783 10.248 17.8486 10.1143L11.5172 3.5764C11.3875 3.44262 11.1741 3.44262 11.0443 3.5764L8.82228 5.86789L10.8895 7.99971C11.4126 8.53913 11.4126 9.41516 10.8895 9.95459C10.3664 10.494 9.51693 10.494 8.99385 9.95459ZM21.3218 22.0939C19.8446 22.0939 18.6437 20.8553 18.6437 19.332C18.6437 18.2445 20.0078 15.8969 20.7862 14.6411C21.0373 14.2355 21.6022 14.2355 21.8533 14.6411C22.6358 15.8969 24 18.2445 24 19.332C24 20.8553 22.799 22.0939 21.3218 22.0939Z" fill="#E7B460"/>
</svg>
