<svg width="24" height="24" viewBox="0 0 22 19" fill="none" xmlns="http://www.w3.org/2000/svg">
<path d="M10.5021 0.78125L0.78125 10.5021C-0.260417 11.5438 -0.260417 13.2313 0.78125 14.2729L4.11458 17.6063C4.61458 18.1063 5.29375 18.3854 6.00208 18.3854H10.3896H10.7812H19.7229C20.4604 18.3854 21.0562 17.7896 21.0562 17.0521C21.0562 16.3146 20.4604 15.7188 19.7229 15.7188H14.5521L19.9979 10.2771C21.0396 9.23542 21.0396 7.54792 19.9979 6.50625L14.2771 0.78125C13.2354 -0.260417 11.5479 -0.260417 10.5062 0.78125H10.5021ZM10.7812 15.7229H10.3896H5.99792L2.66458 12.3896L7.86042 7.19375L13.5854 12.9188L10.7812 15.7229Z" fill="#B9B9C3"/>
</svg>
