<svg width="130" height="130" viewBox="0 0 130 130" fill="none" xmlns="http://www.w3.org/2000/svg">
<g clip-path="url(#clip0_3_1174)">
<circle cx="65" cy="65" r="65" fill="#E7B460" fill-opacity="0.12"/>
<path d="M73.9643 72.4688H57.0357C39.8955 72.4688 26 85.5508 26 101.688C26 104.621 28.5269 107 31.6429 107H99.3571C102.473 107 105 104.621 105 101.688C105 85.5508 91.1045 72.4688 73.9643 72.4688ZM34.6389 99.0312C36.0319 88.5557 45.5384 80.4375 57.0357 80.4375H73.9643C85.4546 80.4375 94.9663 88.564 96.3594 99.0312H34.6389ZM65.5 64.5C77.9654 64.5 88.0714 54.9856 88.0714 43.25C88.0714 31.5144 77.9654 22 65.5 22C53.0346 22 42.9286 31.5144 42.9286 43.25C42.9286 54.9873 53.0328 64.5 65.5 64.5ZM65.5 29.9688C73.2783 29.9688 79.6071 35.9271 79.6071 43.25C79.6071 50.5729 73.2783 56.5312 65.5 56.5312C57.7217 56.5312 51.3929 50.5713 51.3929 43.25C51.3929 35.9271 57.7234 29.9688 65.5 29.9688Z" fill="#E7B460"/>
</g>
<defs>
<clipPath id="clip0_3_1174">
<rect width="130" height="130" fill="white"/>
</clipPath>
</defs>
</svg>
